<svg id="visual" viewBox="0 0 900 300" width="900" height="300" xmlns="http://www.w3.org/2000/svg" xmlns:xlink="http://www.w3.org/1999/xlink" version="1.1"><rect x="0" y="0" width="900" height="300" fill="#001220"></rect><path d="M0 94L8.3 92.3C16.7 90.7 33.3 87.3 50 85.3C66.7 83.3 83.3 82.7 100 82C116.7 81.3 133.3 80.7 150 81.7C166.7 82.7 183.3 85.3 200 86.2C216.7 87 233.3 86 250 84.8C266.7 83.7 283.3 82.3 300 82.7C316.7 83 333.3 85 350 87.7C366.7 90.3 383.3 93.7 400 93C416.7 92.3 433.3 87.7 450 85.8C466.7 84 483.3 85 500 84.8C516.7 84.7 533.3 83.3 550 85.2C566.7 87 583.3 92 600 92.7C616.7 93.3 633.3 89.7 650 88.8C666.7 88 683.3 90 700 90.8C716.7 91.7 733.3 91.3 750 90.5C766.7 89.7 783.3 88.3 800 89.3C816.7 90.3 833.3 93.7 850 95.3C866.7 97 883.3 97 891.7 97L900 97L900 0L891.7 0C883.3 0 866.7 0 850 0C833.3 0 816.7 0 800 0C783.3 0 766.7 0 750 0C733.3 0 716.7 0 700 0C683.3 0 666.7 0 650 0C633.3 0 616.7 0 600 0C583.3 0 566.7 0 550 0C533.3 0 516.7 0 500 0C483.3 0 466.7 0 450 0C433.3 0 416.7 0 400 0C383.3 0 366.7 0 350 0C333.3 0 316.7 0 300 0C283.3 0 266.7 0 250 0C233.3 0 216.7 0 200 0C183.3 0 166.7 0 150 0C133.3 0 116.7 0 100 0C83.3 0 66.7 0 50 0C33.3 0 16.7 0 8.3 0L0 0Z" fill="#ffbab6"></path><path d="M0 76L8.3 76.7C16.7 77.3 33.3 78.7 50 78C66.7 77.3 83.3 74.7 100 73.5C116.7 72.3 133.3 72.7 150 74C166.7 75.3 183.3 77.7 200 79C216.7 80.3 233.3 80.7 250 78.5C266.7 76.3 283.3 71.7 300 70.8C316.7 70 333.3 73 350 75.5C366.7 78 383.3 80 400 78.7C416.7 77.3 433.3 72.7 450 70.8C466.7 69 483.3 70 500 70.5C516.7 71 533.3 71 550 71.7C566.7 72.3 583.3 73.7 600 73.8C616.7 74 633.3 73 650 73.8C666.7 74.7 683.3 77.3 700 77.2C716.7 77 733.3 74 750 72.3C766.7 70.7 783.3 70.3 800 70C816.7 69.7 833.3 69.3 850 68.8C866.7 68.3 883.3 67.7 891.7 67.3L900 67L900 0L891.7 0C883.3 0 866.7 0 850 0C833.3 0 816.7 0 800 0C783.3 0 766.7 0 750 0C733.3 0 716.7 0 700 0C683.3 0 666.7 0 650 0C633.3 0 616.7 0 600 0C583.3 0 566.7 0 550 0C533.3 0 516.7 0 500 0C483.3 0 466.7 0 450 0C433.3 0 416.7 0 400 0C383.3 0 366.7 0 350 0C333.3 0 316.7 0 300 0C283.3 0 266.7 0 250 0C233.3 0 216.7 0 200 0C183.3 0 166.7 0 150 0C133.3 0 116.7 0 100 0C83.3 0 66.7 0 50 0C33.3 0 16.7 0 8.3 0L0 0Z" fill="#fca09f"></path><path d="M0 56L8.3 57C16.7 58 33.3 60 50 60.7C66.7 61.3 83.3 60.7 100 60.5C116.7 60.3 133.3 60.7 150 61.2C166.7 61.7 183.3 62.3 200 61.3C216.7 60.3 233.3 57.7 250 56.7C266.7 55.7 283.3 56.3 300 56.7C316.7 57 333.3 57 350 58.2C366.7 59.3 383.3 61.7 400 63C416.7 64.3 433.3 64.7 450 64.8C466.7 65 483.3 65 500 64.5C516.7 64 533.3 63 550 62C566.7 61 583.3 60 600 58.8C616.7 57.7 633.3 56.3 650 55.7C666.7 55 683.3 55 700 55C716.7 55 733.3 55 750 56C766.7 57 783.3 59 800 59.3C816.7 59.7 833.3 58.3 850 59.2C866.7 60 883.3 63 891.7 64.5L900 66L900 0L891.7 0C883.3 0 866.7 0 850 0C833.3 0 816.7 0 800 0C783.3 0 766.7 0 750 0C733.3 0 716.7 0 700 0C683.3 0 666.7 0 650 0C633.3 0 616.7 0 600 0C583.3 0 566.7 0 550 0C533.3 0 516.7 0 500 0C483.3 0 466.7 0 450 0C433.3 0 416.7 0 400 0C383.3 0 366.7 0 350 0C333.3 0 316.7 0 300 0C283.3 0 266.7 0 250 0C233.3 0 216.7 0 200 0C183.3 0 166.7 0 150 0C133.3 0 116.7 0 100 0C83.3 0 66.7 0 50 0C33.3 0 16.7 0 8.3 0L0 0Z" fill="#f7848b"></path><path d="M0 50L8.3 49.7C16.7 49.3 33.3 48.7 50 47.2C66.7 45.7 83.3 43.3 100 43.5C116.7 43.7 133.3 46.3 150 47.5C166.7 48.7 183.3 48.3 200 47.5C216.7 46.7 233.3 45.3 250 45.7C266.7 46 283.3 48 300 49.2C316.7 50.3 333.3 50.7 350 50.8C366.7 51 383.3 51 400 49.8C416.7 48.7 433.3 46.3 450 46.3C466.7 46.3 483.3 48.7 500 49.2C516.7 49.7 533.3 48.3 550 48C566.7 47.7 583.3 48.3 600 47.8C616.7 47.3 633.3 45.7 650 44.2C666.7 42.7 683.3 41.3 700 41.7C716.7 42 733.3 44 750 44.3C766.7 44.7 783.3 43.3 800 43.7C816.7 44 833.3 46 850 45.8C866.7 45.7 883.3 43.3 891.7 42.2L900 41L900 0L891.7 0C883.3 0 866.7 0 850 0C833.3 0 816.7 0 800 0C783.3 0 766.7 0 750 0C733.3 0 716.7 0 700 0C683.3 0 666.7 0 650 0C633.3 0 616.7 0 600 0C583.3 0 566.7 0 550 0C533.3 0 516.7 0 500 0C483.3 0 466.7 0 450 0C433.3 0 416.7 0 400 0C383.3 0 366.7 0 350 0C333.3 0 316.7 0 300 0C283.3 0 266.7 0 250 0C233.3 0 216.7 0 200 0C183.3 0 166.7 0 150 0C133.3 0 116.7 0 100 0C83.3 0 66.7 0 50 0C33.3 0 16.7 0 8.3 0L0 0Z" fill="#f16779"></path><path d="M0 36L8.3 34.8C16.7 33.7 33.3 31.3 50 31.2C66.7 31 83.3 33 100 32.5C116.7 32 133.3 29 150 28C166.7 27 183.3 28 200 28.8C216.7 29.7 233.3 30.3 250 30C266.7 29.7 283.3 28.3 300 28.8C316.7 29.3 333.3 31.7 350 32.7C366.7 33.7 383.3 33.3 400 32.7C416.7 32 433.3 31 450 31.2C466.7 31.3 483.3 32.7 500 32.2C516.7 31.7 533.3 29.3 550 28.5C566.7 27.7 583.3 28.3 600 28.7C616.7 29 633.3 29 650 28.8C666.7 28.7 683.3 28.3 700 27.8C716.7 27.3 733.3 26.7 750 27.2C766.7 27.7 783.3 29.3 800 29.8C816.7 30.3 833.3 29.7 850 30C866.7 30.3 883.3 31.7 891.7 32.3L900 33L900 0L891.7 0C883.3 0 866.7 0 850 0C833.3 0 816.7 0 800 0C783.3 0 766.7 0 750 0C733.3 0 716.7 0 700 0C683.3 0 666.7 0 650 0C633.3 0 616.7 0 600 0C583.3 0 566.7 0 550 0C533.3 0 516.7 0 500 0C483.3 0 466.7 0 450 0C433.3 0 416.7 0 400 0C383.3 0 366.7 0 350 0C333.3 0 316.7 0 300 0C283.3 0 266.7 0 250 0C233.3 0 216.7 0 200 0C183.3 0 166.7 0 150 0C133.3 0 116.7 0 100 0C83.3 0 66.7 0 50 0C33.3 0 16.7 0 8.3 0L0 0Z" fill="#e9446a"></path><path d="M0 15L8.3 15.7C16.7 16.3 33.3 17.7 50 18.5C66.7 19.3 83.3 19.7 100 19C116.7 18.3 133.3 16.7 150 16C166.7 15.3 183.3 15.7 200 15.3C216.7 15 233.3 14 250 13.3C266.7 12.7 283.3 12.3 300 12.7C316.7 13 333.3 14 350 14.8C366.7 15.7 383.3 16.3 400 16C416.7 15.7 433.3 14.3 450 14.7C466.7 15 483.3 17 500 18C516.7 19 533.3 19 550 18C566.7 17 583.3 15 600 13.7C616.7 12.3 633.3 11.7 650 12.8C666.7 14 683.3 17 700 18.5C716.7 20 733.3 20 750 20.2C766.7 20.3 783.3 20.7 800 20.8C816.7 21 833.3 21 850 20C866.7 19 883.3 17 891.7 16L900 15L900 0L891.7 0C883.3 0 866.7 0 850 0C833.3 0 816.7 0 800 0C783.3 0 766.7 0 750 0C733.3 0 716.7 0 700 0C683.3 0 666.7 0 650 0C633.3 0 616.7 0 600 0C583.3 0 566.7 0 550 0C533.3 0 516.7 0 500 0C483.3 0 466.7 0 450 0C433.3 0 416.7 0 400 0C383.3 0 366.7 0 350 0C333.3 0 316.7 0 300 0C283.3 0 266.7 0 250 0C233.3 0 216.7 0 200 0C183.3 0 166.7 0 150 0C133.3 0 116.7 0 100 0C83.3 0 66.7 0 50 0C33.3 0 16.7 0 8.3 0L0 0Z" fill="#e0005d"></path></svg>