<svg id="visual" viewBox="0 0 900 100" width="900" height="100" xmlns="http://www.w3.org/2000/svg" xmlns:xlink="http://www.w3.org/1999/xlink" version="1.1"><path d="M0 54L4.8 56.2C9.7 58.3 19.3 62.7 29 56.5C38.7 50.3 48.3 33.7 58 32.7C67.7 31.7 77.3 46.3 87 58.8C96.7 71.3 106.3 81.7 116 84.8C125.7 88 135.3 84 145 82.8C154.7 81.7 164.3 83.3 174 78.8C183.7 74.3 193.3 63.7 203 65.5C212.7 67.3 222.3 81.7 232 88.8C241.7 96 251.3 96 261 89.3C270.7 82.7 280.3 69.3 290 56.8C299.7 44.3 309.3 32.7 319 38.8C328.7 45 338.3 69 348 75.5C357.7 82 367.3 71 377 59.2C386.7 47.3 396.3 34.7 406 36.3C415.7 38 425.3 54 435.2 58.5C445 63 455 56 464.8 47.2C474.7 38.3 484.3 27.7 494 29.7C503.7 31.7 513.3 46.3 523 55.2C532.7 64 542.3 67 552 67.5C561.7 68 571.3 66 581 68.2C590.7 70.3 600.3 76.7 610 67.3C619.7 58 629.3 33 639 34.8C648.7 36.7 658.3 65.3 668 65.2C677.7 65 687.3 36 697 31.7C706.7 27.3 716.3 47.7 726 62C735.7 76.3 745.3 84.7 755 78.2C764.7 71.7 774.3 50.3 784 38.8C793.7 27.3 803.3 25.7 813 36.2C822.7 46.7 832.3 69.3 842 72.5C851.7 75.7 861.3 59.3 871 48.5C880.7 37.7 890.3 32.3 895.2 29.7L900 27L900 0L895.2 0C890.3 0 880.7 0 871 0C861.3 0 851.7 0 842 0C832.3 0 822.7 0 813 0C803.3 0 793.7 0 784 0C774.3 0 764.7 0 755 0C745.3 0 735.7 0 726 0C716.3 0 706.7 0 697 0C687.3 0 677.7 0 668 0C658.3 0 648.7 0 639 0C629.3 0 619.7 0 610 0C600.3 0 590.7 0 581 0C571.3 0 561.7 0 552 0C542.3 0 532.7 0 523 0C513.3 0 503.7 0 494 0C484.3 0 474.7 0 464.8 0C455 0 445 0 435.2 0C425.3 0 415.7 0 406 0C396.3 0 386.7 0 377 0C367.3 0 357.7 0 348 0C338.3 0 328.7 0 319 0C309.3 0 299.7 0 290 0C280.3 0 270.7 0 261 0C251.3 0 241.7 0 232 0C222.3 0 212.7 0 203 0C193.3 0 183.7 0 174 0C164.3 0 154.7 0 145 0C135.3 0 125.7 0 116 0C106.3 0 96.7 0 87 0C77.3 0 67.7 0 58 0C48.3 0 38.7 0 29 0C19.3 0 9.7 0 4.8 0L0 0Z" fill="#0066FF" stroke-linecap="round" stroke-linejoin="miter"></path></svg>